Coordinates
version=1
nRows=17
nColumns=33
inDegrees=yes

Units are S.I. units (second, meters, Newtons, ...)
Angles are in degrees.

endheader
time	ground_thorax_rot_x	ground_thorax_rot_y	ground_thorax_rot_z	ground_thorax_tx	ground_thorax_ty	ground_thorax_tz	clav_prot_r	clav_elev_r	scapula_abduction_r	scapula_elevation_r	scapula_upward_rot_r	scapula_winging_r	shoulder_elv_r	plane_of_elev_r	axial_rot_r	elbow_flexion_r	pro_sup_r	wrist_flex_r	wrist_dev_r	clav_prot_l	clav_elev_l	scapula_abduction_l	scapula_elevation_l	scapula_upward_rot_l	scapula_winging_l	shoulder_elv_l	plane_of_elev_l	axial_rot_l	elbow_flexion_l	pro_sup_l	wrist_flex_l	wrist_dev_l
      5.79000000	     36.93763431	     22.52205863	     24.34968032	     92.15178538	    776.91747428	    -42.40276171	     10.76239848	     40.06615183	     34.78553121	     41.21820693	    -25.72007793	  -1881.17354525	  -1554.76817677	    160.79444108	     14.06523779	      0.88748855	    167.67606666	     10.92120484	     12.60535216	    -13.64960422	    -45.00000000	    -45.00000000	     45.00000000	    -45.00000000	  -3156.38149895	     86.76957729	     16.44287243	   -179.99999979	    721.73317985	    197.38517295	     11.84704379	    -14.27542897
      5.80000000	     37.01116132	     22.59169456	     24.11491464	     92.24317428	    776.39836114	    -42.36906105	     10.83556931	     39.80006470	     34.77504597	     41.18553616	    -25.60150840	  -1881.37448783	  -1554.81331355	    160.72949320	     14.32673749	      1.01399532	    168.31217599	     11.18241363	     12.50069338	    -13.24730749	    -45.00000000	    -45.00000000	     45.00000000	    -45.00000000	  -3156.77283316	     86.83096175	     16.07517728	   -179.99999979	    721.67119567	    197.35741620	     11.49593982	    -14.21242177
      5.81000000	     36.98193709	     22.66346952	     24.04061191	     92.21757567	    775.90098910	    -42.33374614	     10.70860757	     39.99170969	     34.70290503	     41.12735210	    -25.59895307	  -1881.28804007	  -1554.72515823	    160.81468668	     14.47005375	      0.99994574	    168.73627376	     11.09330551	     12.45734365	    -13.52895872	    -45.00000000	    -45.00000000	     45.00000000	    -45.00000000	  -3156.46483037	     86.67429590	     16.38746754	   -179.99999979	    721.93573885	    197.31343118	     11.57856585	    -14.14709473
      5.82000000	     36.92820009	     22.84863614	     24.04403544	     92.04420290	    775.44365794	    -42.30252087	     10.76256678	     39.72037575	     34.53260824	     41.02883183	    -25.70358963	  -1881.36836540	  -1554.62513283	    160.64903067	     14.57919273	      1.10096915	    168.95667062	     11.37362525	     12.32786942	    -13.40067703	    -45.00000000	    -45.00000000	     45.00000000	    -45.00000000	  -3156.94866763	     86.80164301	     15.84340641	   -179.99999979	    722.12757295	    197.25224957	     11.15730350	    -13.95077705
      5.83000000	     36.89118002	     22.94379512	     24.00032065	     91.71618301	    775.01524277	    -42.28381240	     10.68391936	     40.11584520	     34.49014114	     41.11482507	    -25.88166706	  -1881.18975962	  -1554.62054172	    160.83798020	     14.65468218	      1.00508241	    169.24812007	     11.15784517	     12.36726370	    -13.45582309	    -45.00000000	    -45.00000000	     45.00000000	    -45.00000000	  -3156.38416081	     86.59316807	     16.35009866	   -179.99999979	    722.38317993	    197.23111848	     11.50386817	    -13.93629304
      5.84000000	     36.85099374	     23.20712651	     24.08674449	     91.24225763	    774.63164056	    -42.28791277	     10.69899705	     39.85473679	     34.30391411	     41.20498670	    -26.16723132	  -1881.15854639	  -1554.57001877	    160.78605360	     14.74268679	      1.10718143	    169.46792285	     11.32482639	     12.32227025	    -13.39468055	    -45.00000000	    -45.00000000	     45.00000000	    -45.00000000	  -3156.59061580	     86.56713600	     15.92588211	   -179.99999979	    722.37278074	    197.21972247	     11.19047520	    -13.81435059
      5.85000000	     36.87511643	     23.39700338	     24.17528406	     90.65556391	    774.28237321	    -42.32279257	     10.68756065	     40.01691231	     33.88678595	     41.44513013	    -26.08246891	  -1880.99194920	  -1554.60808198	    160.62988311	     14.81574285	      1.11671176	    169.71117141	     11.11099637	     12.20685313	    -13.35302845	    -45.00000000	    -45.00000000	     45.00000000	    -45.00000000	  -3155.92231424	     86.11915609	     16.36197860	   -179.99999979	    722.45560341	    197.29673839	     11.33983420	    -13.79438874
      5.86000000	     36.78418160	     23.64795457	     24.35018669	     89.96272284	    773.95524583	    -42.38002707	     10.65607353	     39.69390772	     34.07795534	     41.38885072	    -26.91263308	  -1880.95783186	  -1554.39803656	    160.82780452	     14.94043034	      1.05977670	    169.91727682	     11.54106556	     12.30980553	    -13.31699266	    -45.00000000	    -45.00000000	     45.00000000	    -45.00000000	  -3156.50753454	     86.29911169	     15.36122253	   -179.99999979	    722.40427460	    197.43781807	     10.96378534	    -13.75281136
      5.87000000	     36.63146153	     23.93571287	     24.52476149	     89.18987728	    773.64138257	    -42.45692540	     10.70832878	     40.03910336	     33.76426138	     41.49963456	    -26.97349713	  -1880.73238207	  -1554.39730294	    160.88536886	     14.92936964	      1.18163781	    170.19396238	     11.23917775	     12.20160380	    -13.20818561	    -45.00000000	    -45.00000000	     45.00000000	    -45.00000000	  -3155.74230536	     86.06956682	     15.99500363	   -179.99999979	    722.68130776	    197.72297983	     11.15211573	    -13.69493112
      5.88000000	     36.58412252	     24.22073560	     24.65366429	     88.33251099	    773.33920926	    -42.54525870	     10.74040712	     39.73996017	     33.37127550	     41.65693888	    -27.28369793	  -1880.64933712	  -1554.36771311	    160.63432687	     15.08160587	      1.27768329	    170.41206759	     11.37950402	     12.13050677	    -13.17008613	    -45.00000000	    -45.00000000	     45.00000000	    -45.00000000	  -3155.92585607	     86.05912400	     15.56593451	   -179.99999979	    722.82666523	    198.07692253	     10.94226937	    -13.55584604
      5.89000000	     36.53933521	     24.39828420	     24.74875376	     87.38152977	    773.04680729	    -42.63663305	     10.72482434	     39.99051988	     33.28223090	     41.77463896	    -27.66527473	  -1880.40315624	  -1554.27485251	    160.78556730	     15.17782012	      1.21861753	    170.66348758	     11.22896881	     12.14247961	    -13.05048364	    -45.00000000	    -45.00000000	     45.00000000	    -45.00000000	  -3155.37108740	     85.87280234	     15.94416580	   -179.99999979	    723.09485960	    198.50858855	     11.05736268	    -13.55472759
      5.90000000	     36.47214489	     24.79996272	     24.93941319	     86.32173851	    772.76616502	    -42.71353304	     10.80524242	     39.62769843	     32.76812640	     41.91190211	    -27.92461485	  -1880.37931707	  -1554.23945182	    160.50193554	     15.29660914	      1.39983006	    170.84496365	     11.41074795	     12.06797929	    -13.04285978	    -45.00000000	    -45.00000000	     45.00000000	    -45.00000000	  -3155.72519841	     85.88841448	     15.33410475	   -179.99999979	    723.19132397	    198.98799853	     10.74331254	    -13.41733392
      5.91000000	     36.31829888	     25.05918295	     25.26630902	     85.15301824	    772.49507156	    -42.77398969	     10.91993477	     39.70407964	     32.73664118	     42.00935137	    -28.58942984	  -1880.24427480	  -1554.11921474	    160.64433418	     15.24898058	      1.22958134	    171.09721564	     11.36843792	     12.05883688	    -12.86803901	    -45.00000000	    -45.00000000	     45.00000000	    -45.00000000	  -3155.16506342	     85.66984188	     15.49714219	   -179.99999979	    723.34345653	    199.65647404	     10.83571112	    -13.51264685
      5.92000000	     36.24608142	     25.32383216	     25.41915443	     83.88066546	    772.23140493	    -42.81921261	     10.73836438	     39.84991018	     32.28976449	     42.19801808	    -28.70507850	  -1879.94986445	  -1554.02858177	    160.64740411	     15.40558708	      1.30859772	    171.34326720	     11.21798527	     12.13493503	    -12.79761406	    -45.00000000	    -45.00000000	     45.00000000	    -45.00000000	  -3154.82641774	     85.53299689	     15.62374148	   -179.99999979	    723.54617892	    200.28443400	     10.79654182	    -13.41379759
      5.93000000	     36.15318376	     25.58464127	     25.65588745	     82.50523722	    771.97322688	    -42.85063780	     10.82175240	     39.56205842	     32.22043271	     42.26897584	    -29.32363332	  -1880.05374770	  -1553.96666286	    160.51991758	     15.51000588	      1.27385766	    171.53365839	     11.34528005	     12.01570838	    -12.70113196	    -45.00000000	    -45.00000000	     45.00000000	    -45.00000000	  -3154.72360705	     85.47934705	     15.33429480	   -179.99999979	    723.59072133	    200.89668225	     10.72183451	    -13.54984233
      5.94000000	     35.96909923	     25.92218755	     25.98526911	     81.03076266	    771.72041411	    -42.86977512	     10.85169914	     39.67758977	     31.86944559	     42.46615318	    -29.71182607	  -1879.71077555	  -1553.89994267	    160.66981588	     15.64773473	      1.28884096	    171.79234132	     11.19445900	     12.14319773	    -12.56390805	    -45.00000000	    -45.00000000	     45.00000000	    -45.00000000	  -3154.28137158	     85.26602249	     15.46822697	   -179.99999979	    723.81995025	    201.64849613	     10.71553482	    -13.44563014
      5.95000000	     35.73993505	     26.18446616	     26.29911663	     79.45806875	    771.47302326	    -42.87860816	     10.82284282	     39.26226753	     31.57889449	     42.35303109	    -30.06527775	  -1879.93348586	  -1553.81533948	    160.37976400	     15.79348833	      1.39635147	    171.99991767	     11.18582525	     12.10361798	    -12.46987703	    -45.00000000	    -45.00000000	     45.00000000	    -45.00000000	  -3153.97091211	     85.31108885	     15.33022804	   -179.99999979	    723.95281379	    202.34402714	     10.65254147	    -13.55892230
